<svg version="1.1" id="theorye_logo" xmlns="http://www.w3.org/2000/svg" xmlns:xlink="http://www.w3.org/1999/xlink"
	 x="0px" y="0px" viewBox="0 0 246.6 241.5" style="enable-background:new 0 0 246.6 241.5;" xml:space="preserve">
<style type="text/css">
	.st0{fill:#020202;}
	.st1{fill:#C20000;}
</style>
<g>
	<path class="st0" d="M261.8,121.3c0,38.4,0,76.8,0,115.2c0,17.5-9.5,27-27,27c-77.2,0-154.4,0-231.6,0c-17.5,0-27-9.6-27-27
		c0-77.2,0-154.4,0-231.6c0-17.5,9.6-27,27-27c77.2,0,154.4,0,231.6,0c17.5,0,27,9.6,27,27C261.8,43.7,261.8,82.5,261.8,121.3z
		 M119-16.1c-38.4,0-76.8,0.4-115.2-0.2C-10-16.6-18.1-7.3-18,5.2c0.4,77,0.2,153.9,0.2,230.9c0,14.5,6.7,21.3,21.1,21.3
		c77.2,0,154.3,0,231.5,0c14.1,0,21-6.8,21-20.7c0-77.4,0-154.7,0-232.1c0-13.9-6.9-20.7-21-20.7C196.2-16.1,157.6-16.1,119-16.1z"
		/>
	<path class="st1" d="M72.7,43.2c-21.4,0-31.7,0-51.2,0c8.2-8.3,16.7-16.8,26.2-26.2c61.7,0,115.3,0,179.8,0
		c-3.4,3.4-22.6,22.1-26.8,26.3c-40.4,0-58.4,0-97.7,0c-11.7,60.4-23.3,120.4-35,180.8c-9.5,0-19.5,0-30.3,0
		C49.3,164,60.9,103.9,72.7,43.2z"/>
	<path class="st1" d="M82.2,224.2c10.9-56.2,21.7-111.7,32.5-167.5c34.2,0,68.7,0,104.3,0c-1.3,7.2-2.6,14.1-3.9,21.2
		c-26.2,0-51.7,0-78,0c-2.5,12.6-4.9,25.1-7.4,38.1c15.4,0,30.7,0,45.3,0c-6.9,6.8-13.8,13.6-22.4,22c-7,0-17,0-27.4,0
		c-4.2,21.4-8.3,42.7-12.5,64.5c27.2,0,54.1,0,80.4,0c-6.8,6.8-13.7,13.8-21.6,21.7C143.6,224.2,113.7,224.2,82.2,224.2z"/>
</g>
</svg>
